<svg width="28" height="29" viewBox="0 0 28 29" fill="none" xmlns="http://www.w3.org/2000/svg">
<g clip-path="url(#clip0_1981_10909)">
<path d="M25.4237 22.0659C25.0153 23.0169 24.511 23.9238 23.9187 24.7725C23.1265 25.9013 22.4784 26.6824 21.9791 27.1164C21.205 27.828 20.3749 28.1932 19.4865 28.2136C18.8489 28.2136 18.0801 28.0322 17.1847 27.6641C16.2863 27.2978 15.4609 27.1158 14.7061 27.1158C13.9145 27.1158 13.0658 27.2978 12.1575 27.6641C11.2481 28.0322 10.5154 28.2241 9.95542 28.2428C9.10376 28.2795 8.25442 27.9044 7.40626 27.1164C6.86551 26.6439 6.18942 25.8354 5.37859 24.6897C4.50884 23.4659 3.79367 22.0472 3.23367 20.429C2.63401 18.682 2.33301 16.9897 2.33301 15.3517C2.33301 13.4751 2.73842 11.8569 3.55042 10.5007C4.18917 9.41103 5.03792 8.55237 6.10076 7.9212C7.14346 7.29723 8.33319 6.96145 9.54826 6.9482C10.2249 6.9482 11.1122 7.15762 12.2153 7.56887C13.3148 7.98128 14.0207 8.1907 14.3304 8.1907C14.5614 8.1907 15.346 7.9457 16.6754 7.45803C17.9331 7.00537 18.9942 6.81812 19.8633 6.8922C22.2194 7.08237 23.9893 8.01103 25.1658 9.68403C23.0594 10.9604 22.017 12.7483 22.038 15.0419C22.0567 16.8287 22.7048 18.3156 23.9788 19.4957C24.5563 20.044 25.2008 20.4675 25.9178 20.768C25.7674 21.2059 25.6027 21.6388 25.4237 22.0659ZM20.0208 0.805701C20.0208 2.2057 19.5093 3.51353 18.4896 4.72337C17.2588 6.16245 15.7707 6.9937 14.1566 6.86245C14.1349 6.68634 14.124 6.50906 14.1239 6.33162C14.1239 4.98762 14.709 3.54912 15.7485 2.37253C16.2677 1.77695 16.9268 1.2817 17.7272 0.886784C18.5263 0.497701 19.2812 0.282451 19.9917 0.245117C20.0121 0.432367 20.0208 0.619617 20.0208 0.805117V0.805701Z" fill="white"/>
</g>
<defs>
<clipPath id="clip0_1981_10909">
<rect width="28" height="28" fill="white" transform="translate(0 0.245117)"/>
</clipPath>
</defs>
</svg>
