<svg width="144" height="141" viewBox="0 0 144 141" fill="none" xmlns="http://www.w3.org/2000/svg">
<path d="M150.04 43.458C148.68 43.9664 147.31 44.5156 145.9 44.78C142.75 45.3597 140.33 46.8851 138.77 49.763C138.62 50.0478 138.27 50.2207 137.98 50.4749C137.73 50.18 137.48 50.0173 137.38 49.7732C135.12 44.4241 131.09 40.7834 126.19 38.1291C123.16 36.4817 119.91 35.2715 116.76 33.8681C115.35 33.2376 113.94 32.5969 112.51 32.0274C105.25 29.1291 98.1097 25.8037 90.6597 23.5054C84.3497 21.563 77.6997 20.78 71.1797 19.5393C65.9997 18.5529 60.7797 18.0241 55.4897 17.9224C49.3497 17.8003 43.3097 19.1834 37.0597 18.1257C32.7197 17.3834 28.7597 16.5291 25.3297 13.6512C23.2597 11.9122 20.7997 10.8851 18.1397 10.58C15.2197 10.2444 12.7598 9.13591 10.6898 6.97997C7.83975 4.01048 3.95975 2.81048 0.609756 0.685052C0.40976 0.91895 0.199753 1.15285 -0.000244171 1.38675C0.859756 2.10878 1.63976 2.99353 2.59976 3.52234C4.49976 4.5698 5.93976 6.01387 7.07976 7.85455C7.89975 9.17658 8.70976 10.5596 9.75977 11.6783C11.0498 13.0613 12.3997 14.7901 14.0498 15.3495C18.3797 16.8037 21.3098 19.702 23.8197 23.3325C25.7498 26.119 27.8098 28.8037 29.8098 31.5393C30.1398 31.9868 30.4597 32.4444 30.9997 33.2071C26.9998 31.8851 23.0798 31.5902 20.1797 28.7122C19.8697 28.4071 19.3997 28.2342 18.9697 28.0918C16.0397 27.1461 14.4998 24.8783 13.2098 22.2037C12.1398 19.9766 10.7798 17.8918 9.42976 15.8274C8.35976 14.18 6.72975 13.2342 4.96976 12.6546C5.72975 14.0173 6.53976 15.3088 7.17976 16.6715C8.27975 19.0207 8.81976 21.5122 9.11977 24.1156C9.58977 28.1529 11.2697 31.4681 15.1897 33.319C16.5298 33.9495 17.6297 35.1902 18.7197 36.2681C20.7997 38.3122 22.8098 40.4274 24.8297 42.5325C26.8597 44.6376 28.9497 46.6919 30.8397 48.919C33.0297 51.502 35.0997 54.1969 37.0997 56.9427C39.9697 60.8885 43.7097 63.7461 47.7897 66.2275C55.5097 70.9054 63.1697 75.6953 70.9497 80.2614C74.0797 82.1021 77.3697 83.7292 80.7397 85.0512C86.4097 87.2681 92.1897 89.2105 97.9597 91.1732C102.97 92.8817 108.07 93.3292 113.25 91.9665C114.38 91.6715 115.48 91.2851 116.58 90.9495C117.07 91.6004 117.49 92.0885 117.83 92.6275C123.19 101.383 129.92 108.97 137.08 116.2C137.65 116.77 138.15 117.472 138.5 118.194C140.44 122.16 142.41 126.116 144.21 130.143C145.33 132.644 147.05 134.211 149.7 134.516C152.31 134.821 154.48 136.041 155.97 138.044C156.65 138.96 157.39 139.753 158.18 140.444L158.18 137.292C158 137.089 157.81 136.885 157.63 136.672C155.9 134.516 153.36 133.529 150.7 133.183C147.85 132.807 146.22 131.322 145.18 128.597C144.08 125.699 142.5 122.983 140.96 119.821C141.72 120.268 142.39 120.441 142.67 120.858C144.56 123.797 147.51 125.556 150.02 127.794C152.63 130.112 155.37 132.248 158.18 134.292L158.18 132.004C142.56 120.583 128.97 106.763 117.95 89.7902C118.63 89.0275 119.11 88.4987 119.81 87.7054C124.17 93.2682 127.33 99.5529 132.58 104.129C129.22 98.5258 125.86 92.9122 122.26 86.9122C123.15 87.2173 123.75 87.2987 124.21 87.5936C126.14 88.7936 128.11 89.9732 129.94 91.3258C134.14 94.4173 138.45 97.3054 143.19 99.4919C144.76 100.224 145.88 101.261 146.34 103.041C146.64 104.19 147.14 105.309 147.72 106.346C149.29 109.163 151.55 110.882 154.89 111.095C156.12 111.177 157.2 111.421 158.17 111.827L158.17 108.777C157.47 108.583 156.72 108.441 155.92 108.4C155.38 108.38 154.85 108.207 154.31 108.126C150.72 107.577 148.33 105.95 147.85 101.516C151.2 103.621 154.66 105.024 158.17 106.143L158.17 104.516C156.2 103.58 154.23 102.644 152.27 101.688C150.88 101.007 149.57 100.163 148.15 99.5427C142.36 97.0207 137.1 93.5936 131.96 89.9224C129 87.8071 125.84 85.997 122.94 84.1461C123.31 82.4478 123.72 80.597 124.18 78.4919C128.35 77.7393 132.54 79.0309 137.38 79.1021C136.47 78.5529 136.04 78.1766 135.55 78.0139C132.27 76.9258 128.99 75.8376 125.44 76.0919C124.98 76.1224 124.49 75.5834 124.01 75.2987C124.43 74.9326 124.82 74.5054 125.29 74.241C125.58 74.0783 126 74.1393 126.36 74.1292C129.47 73.997 129.47 74.0071 131.84 72.1461C133.91 73.7122 136.05 75.2478 138.08 76.9156C139.68 78.2275 140.7 79.9868 140.97 82.1021C141.35 85.1122 142.75 87.441 145.16 89.2512C146.09 89.9427 146.72 91.041 147.55 91.8749C148.25 92.5766 148.96 93.5732 149.81 93.7665C152.59 94.4275 155.31 95.5868 158.15 95.8512L158.15 93.1258C157.2 93.0343 156.25 92.8715 155.28 92.7292C151.83 92.2309 149.52 90.6139 147.05 88.1529C143.15 84.2681 143.58 83.6885 142.67 79.1631C143.16 79.2648 143.6 79.2648 143.98 79.4377C148.53 81.5224 153.3 82.4783 158.16 82.9461L158.16 81.4207C150.18 80.4037 142.66 77.7698 136.14 72.8173C133.63 70.9156 131.55 68.4342 129.15 66.0851C131.02 64.7427 132.55 63.6444 134 62.5969C135.85 64.9461 137.71 67.1732 139.43 69.5224C140.88 71.5054 142.74 72.8783 144.87 73.997C149.14 76.2444 153.6 77.6885 158.17 78.6444L158.17 76.6614C157.13 76.4681 156.08 76.2749 155.04 76.0817C154.62 76.0004 154.22 75.7563 153.35 75.3902C154.98 74.9529 156.59 74.5461 158.17 74.2207L158.17 72.0648C157.27 72.2173 156.37 72.4003 155.48 72.6241C151.76 73.5393 147.96 73.3868 144.39 71.6173C142.52 70.6919 141.36 69.0648 139.98 67.0512C141 67.3156 141.66 67.4478 142.3 67.6512C147.48 69.3393 152.81 69.8987 158.18 69.6953L158.18 67.3563C157.99 67.3665 157.8 67.3766 157.61 67.397C152.86 67.6715 148.19 67.0715 143.61 65.719C142.31 65.3325 140.9 65.241 139.65 64.7427C138.51 64.2953 137.39 63.6139 136.49 62.78C135.6 61.9664 135.18 60.9088 136.03 59.5766C136.66 58.6003 136.89 57.3698 137.27 56.302C144.14 56.6885 150.95 57.4817 157.64 54.8987C157.82 54.8275 158 54.7664 158.18 54.7054L158.18 52.3461C153.92 53.8919 149.67 55.1631 145.05 54.4308C143.99 54.2681 142.88 54.4919 141.79 54.4308C140.47 54.3495 139.16 54.1563 137.85 54.0139C137.79 53.7597 137.73 53.5156 137.67 53.2614C139.64 52.8342 140.74 51.4919 141.8 49.9359C142.47 48.9597 143.7 48.2478 144.82 47.78C147.16 46.8037 149.59 46.0614 151.81 45.2885C152.95 46.0207 153.89 46.9664 155 47.2512C156.16 47.5461 157.24 47.1495 158.18 46.4885L158.18 43.4783C157.33 44.1902 156.29 44.6783 155.15 45.0139C153.34 42.5529 152.8 42.4308 150.04 43.458ZM128.27 67.6105C128.94 68.3326 129.5 69.1664 130.14 70.0003C128.59 72.7563 125.7 71.4241 123.8 73.2139C122.91 71.2919 122.12 69.5936 121.23 67.6919C123.25 67.3868 125.07 67.0614 126.92 66.8885C127.35 66.8376 127.93 67.2444 128.27 67.6105ZM117.27 66.5122C118.19 68.3122 119.18 70.0715 120.11 71.8715C121.71 74.9936 121.88 78.441 120.83 81.5732C119.68 85.0309 117.07 87.6851 113.56 88.936C108.95 90.5834 104.22 90.3088 99.6497 88.7834C92.8397 86.5054 86.0897 84.0749 79.3597 81.5529C77.1597 80.7292 75.0697 79.5495 73.0497 78.3292C65.4797 73.7732 57.9597 69.1258 50.4197 64.5088C50.1897 64.3664 50.0097 64.1529 49.8097 63.9698C55.2897 58.3258 56.0597 56.8614 55.2397 52.7325C54.8897 53.6885 54.5397 54.6342 54.1897 55.5902C53.2697 58.1529 51.9097 60.38 49.6197 61.9563C48.4197 62.78 47.3997 62.7902 46.1497 61.9156C43.1297 59.7902 40.5797 57.1969 38.3897 54.2275C34.0397 48.3088 29.5797 42.4919 23.7397 37.9563C23.0298 37.4071 22.4097 36.6851 21.8897 35.9529C20.2197 33.5935 18.2698 31.6512 15.6197 30.3698C13.1298 29.1596 12.1898 26.78 11.9498 24.1054C13.4498 27.4613 16.5397 28.6613 19.2397 30.5427C23.6998 33.6444 28.8197 34.8647 33.6597 36.8681C37.3197 38.3834 41.2597 38.5156 45.1897 38.2817C47.3597 38.1495 49.5497 38.0376 51.7097 38.1597C56.5797 38.4342 61.2197 39.5834 65.3097 42.4613C73.3997 48.1563 82.7297 51.0749 91.7597 54.6546C97.3397 56.8614 102.89 59.1393 108.48 61.2851C110.07 61.8953 110.74 62.8817 110.79 64.5495C110.83 66.0241 111.19 67.4885 111.15 68.9529C111.12 70.2953 110.75 71.6275 110.54 72.9088C112.13 72.1461 112.82 71.2207 113.11 68.8614C113.31 67.1529 113.27 65.4037 113.34 63.5936C115.17 64.041 116.46 64.9258 117.27 66.5122ZM130.62 62.3631C128.35 63.7664 126.08 65.0681 123.32 65.0987C121.06 65.1292 119.08 64.7427 117.49 62.8004C116.66 61.7834 115.37 61.0614 114.15 60.4919C110.36 58.7224 106.54 57.0037 102.66 55.4275C100.65 54.6139 98.5097 54.1258 96.4097 53.5156C95.7097 53.3122 94.9397 53.3224 94.2897 53.0478C86.5897 49.8241 78.9097 46.5597 71.0097 43.2241C72.9197 39.1766 75.2897 35.841 73.8697 31.5291C73.4797 33.3291 73.2197 35.18 72.6597 36.919C72.0697 38.7393 71.1997 40.4681 70.3497 42.4512C68.7797 41.5969 67.4397 40.8647 65.9797 40.0715C66.7197 37.458 68.3097 35.0478 67.5097 31.6715C66.6797 34.519 65.9797 36.8885 65.2197 39.4817C64.0397 39.0241 63.1997 38.7393 62.3897 38.3936C57.3597 36.258 52.1097 35.3325 46.6797 35.8207C38.7797 36.5325 33.1097 32.8512 28.6497 26.6478C26.7798 24.0444 24.9997 21.3698 23.0797 18.8071C21.0997 16.1529 18.4198 14.4342 15.2697 13.5698C12.2498 12.7359 10.3198 10.7223 8.80977 8.01726C9.10976 7.94607 9.33975 7.83421 9.38975 7.89523C11.9097 10.6105 14.9897 12.0037 18.6097 12.7156C20.8297 13.1529 23.0497 14.4139 24.8897 15.8071C28.2997 18.3901 31.9297 19.7834 36.1997 19.9156C39.8997 20.0274 43.5897 20.5969 47.6497 20.9935C47.4297 22.9257 47.2197 24.8071 47.0097 26.6885C48.3897 25.0715 48.8897 23.0885 48.9197 20.6579C49.8997 20.6071 50.7697 20.5257 51.6397 20.5054C57.9197 20.4139 64.1497 20.7902 70.3297 22.0207C72.5597 22.4681 74.7897 22.9461 77.0397 23.1698C78.7397 23.3427 79.4897 24.1868 79.5997 25.763C79.7397 27.8681 79.8797 29.9834 79.9097 32.0986C79.9297 33.7359 79.7897 35.363 79.7097 37.2444C82.0997 34.8851 82.6097 31.9563 82.1597 24.1664C86.2497 24.7156 90.1797 25.7732 94.0097 27.1868C99.2997 29.1495 104.56 31.1529 109.8 33.2376C113.34 34.641 116.79 36.2986 120.34 37.6817C122.46 38.5054 123.59 39.9902 123.83 42.1664C124.12 44.719 124.25 47.2919 124.44 49.7834C125.87 48.7868 126.22 46.9868 125.96 40.8952C126.77 41.3529 127.51 41.5969 128.03 42.0851C130.2 44.1698 132.33 46.2953 134.41 48.4817C134.88 48.98 135.29 49.7325 135.35 50.4139C135.7 54.2681 134.89 59.7292 130.62 62.3631Z" fill="#F2F2F2"/>
<path d="M106.77 68.5461C105.73 71.6072 104.87 74.1089 103.91 76.9258C107.31 75.1055 108.53 71.8004 106.77 68.5461Z" fill="#F2F2F2"/>
<path d="M60.4598 54.5732C58.7398 56.9936 57.8198 59.3529 57.8798 61.0004C60.4398 58.8343 61.2098 57.0851 60.4598 54.5732Z" fill="#F2F2F2"/>
<path d="M72.4297 64.0208C70.1997 66.1462 67.9697 68.2614 65.5098 70.6004C69.0097 69.5021 70.8997 66.9902 72.4297 64.0208Z" fill="#F2F2F2"/>
<path d="M75.4003 65.1292C74.6203 66.1359 73.5703 66.9698 73.4403 68.5054C75.6603 67.4376 75.8303 67.1732 75.4003 65.1292Z" fill="#F2F2F2"/>
<path d="M62.5297 60.3597C62.5197 60.2377 62.2997 60.1462 61.9797 59.8716C61.6397 60.4309 61.3197 60.9597 60.9897 61.4885C61.1697 61.6207 61.3497 61.7631 61.5297 61.8953C62.2297 61.6716 62.6297 61.2038 62.5297 60.3597Z" fill="#F2F2F2"/>
<path d="M118.899 43.875C118.819 47.5258 118.199 50.9936 115.819 54.3598C119.329 52.0818 120.719 47.2614 118.899 43.875Z" fill="#F2F2F2"/>
<path d="M126.91 49.0613C126.46 50.546 126.02 52.0308 125.57 53.5257C127.16 52.3867 127.96 51.0138 126.91 49.0613Z" fill="#F2F2F2"/>
<path d="M44.8998 24.6443C44.5798 25.8646 44.2798 27.0239 43.8098 28.8138C45.8799 26.5562 45.9099 26.3833 44.8998 24.6443Z" fill="#F2F2F2"/>
<path d="M129.18 53.0783C129.32 52.4274 129.45 51.7664 129.59 51.1156C129.32 51.0546 129.06 50.9834 128.79 50.9224C128.72 51.6139 128.65 52.3054 128.58 52.9969C128.78 53.0275 128.98 53.0478 129.18 53.0783Z" fill="#F2F2F2"/>
<path d="M137.54 87.6037C135.3 86.0376 133.02 84.5427 130.7 83.1088C129.65 82.4579 128.47 81.9596 126.55 82.7935C129.1 84.38 131.21 85.6003 133.23 86.9529C135.35 88.3664 137.35 89.963 139.48 91.3664C141.53 92.7291 143.68 93.919 145.75 95.241C147.81 96.5528 149.84 97.9359 152.31 98.3833C152.05 97.9562 151.7 97.6817 151.35 97.4173C146.75 94.1427 142.16 90.8376 137.54 87.6037Z" fill="#F2F2F2"/>
</svg>
