<svg width="245" height="212" viewBox="0 0 245 212" fill="none" xmlns="http://www.w3.org/2000/svg">
<path d="M29.2266 10.6205C31.6814 14.2442 34.9543 16.5653 39.4964 16.8492C44.7566 17.1832 50.0168 17.8511 55.2769 17.968C67.9013 18.2352 79.9913 20.6065 91.6973 25.5159C102.451 30.008 111.485 36.6374 118.666 45.7216C122.69 50.8148 126.264 56.2754 130.205 61.8194C135.014 60.7173 140.274 59.3981 145.585 58.3293C150.528 57.3441 154.919 55.2734 159.311 52.8354C167.611 48.2265 172.904 40.3446 179.984 34.4332C182.69 32.1621 184.51 31.4608 187.499 33.3978C190.171 35.1345 191.974 37.5392 192.408 40.7454C192.726 43.1166 192.692 45.5547 193.143 47.8925C193.611 50.3639 193.878 53.1861 195.264 55.1231C199.322 60.8342 203.513 66.5452 208.339 71.605C213.282 76.7983 219.194 81.0565 224.387 86.0161C238.13 99.1749 243.991 116.058 244.593 134.41C245.094 149.572 239.399 163.232 229.012 174.604C220.062 184.406 209.308 191.837 197.635 198.016C187.315 203.476 176.361 206.465 164.688 207.334C159.795 207.701 154.669 208.419 150.21 210.289C141.894 213.763 133.812 210.924 125.629 210.607C124.761 210.573 123.926 209.772 123.091 209.304C121.839 208.603 120.653 207.718 119.317 207.234C116.612 206.248 114.725 204.445 113.256 202.04C111.068 198.433 108.246 195.544 104.422 193.524C101.9 192.188 99.6794 190.268 97.4584 188.447C91.0961 183.287 85.6856 177.242 80.8931 170.546C66.9161 178.678 51.6533 180.716 36.2402 179.797C16.1013 178.578 -1.98364 170.997 -17.8142 158.423C-28.2678 150.123 -35.3815 139.553 -39.1053 126.661C-41.1092 119.748 -41.0424 112.751 -40.9757 105.704C-40.8588 90.458 -36.6339 76.3642 -29.0025 63.2221C-24.6274 55.6909 -19.3172 48.8944 -12.8881 43.0498C-5.52385 36.3368 -1.7666 28.3548 -3.45319 18.2519C-3.68698 16.8325 -3.92073 15.4131 -4.20462 14.0104C-5.37354 8.04888 -2.48462 3.75726 1.48973 0H22.1797C24.5342 3.52347 26.8387 7.09704 29.2266 10.6205ZM185.195 34.7672C183.859 34.1326 182.506 34.0992 182.155 35.719C182.038 36.2868 183.191 37.4557 184.009 37.8064C185.762 38.5745 187.683 38.992 189.72 39.6098C188.868 37.2386 187.299 35.7691 185.195 34.7672ZM117.03 201.389C121.572 204.194 125.696 207.985 131.641 207.534C133.044 207.434 134.547 207.651 135.916 208.035C140.308 209.271 144.566 208.67 148.54 206.783C154.251 204.061 160.196 202.708 166.458 201.907C177.496 200.504 187.967 197.097 197.435 190.986C202.01 188.047 206.703 185.275 211.429 182.569C217.624 179.029 222.734 174.203 227.593 169.093C232.953 163.482 235.475 156.385 237.629 149.138C238.264 147.001 238.631 144.763 239.232 142.625C240.518 138.083 241.019 133.541 239.833 128.899C238.197 122.553 236.978 116.091 234.991 109.862C232.503 102.097 227.476 95.8184 222.032 89.8736C221.565 89.3559 220.947 88.9885 219.945 88.9885C221.298 90.8922 222.617 92.846 224.02 94.7163C229.53 102.014 232.736 110.397 234.79 119.147C237.529 130.819 236.026 142.175 229.948 152.528C225.589 159.959 220.613 167.056 215.536 174.036C211.228 179.964 205.367 184.055 198.554 186.961C194.012 188.898 189.72 191.453 185.361 193.808C180.085 196.663 174.591 198.483 168.462 198.517C162.451 198.533 156.723 199.986 151.813 203.76C149.526 205.514 146.921 206.048 144.098 205.48C141.41 204.946 138.838 204.562 136.1 205.631C134.947 206.081 133.294 205.514 131.958 205.096C126.715 203.51 121.505 201.806 116.145 200.103C116.412 200.504 116.595 201.138 117.03 201.389ZM94.4192 182.402C97.3081 184.941 100.097 187.662 103.286 189.733C106.342 191.704 109.916 192.806 113.172 194.476C121.471 198.734 121.438 198.767 123.058 198.199C124.16 199.235 125.245 200.287 127.216 202.157C126.631 199.218 126.281 197.465 125.93 195.711C126.164 195.611 126.398 195.494 126.631 195.394C127.216 196.53 127.8 197.665 128.385 198.801C130.222 202.358 132.676 203.226 136.634 202.474C138.905 202.04 141.377 202.14 143.681 202.474C148.874 203.243 153.032 201.589 156.506 197.815C157.04 197.749 157.574 197.665 158.109 197.598C167.844 197.264 177.096 195.311 185.645 190.334C189.503 188.097 193.577 186.143 197.702 184.44C203.78 181.935 209.091 178.344 212.898 173.084C218.308 165.57 223.719 157.988 228.244 149.923C234.523 138.735 234.724 126.745 230.833 114.605C227.81 105.187 222.934 96.837 217.039 88.9384C212.731 83.1773 208.556 77.3995 203.146 72.5234C200.357 70.0186 198.437 66.5619 195.431 63.5561C195.581 64.9588 195.531 66.4283 195.915 67.7809C197.452 73.158 199.038 78.535 200.758 83.8453C208.356 107.324 208.189 130.736 200.023 154.031C195.681 166.421 186.915 175.456 176.979 183.521C176.544 183.872 175.877 183.905 175.309 184.072C175.359 184.039 175.392 183.989 175.442 183.939C175.409 183.955 175.359 183.972 175.325 184.005C176.611 182.469 177.747 180.766 179.233 179.463C194.546 165.92 201.877 148.337 202.812 128.548C203.513 113.77 202.194 98.8576 197.084 84.5299C194.412 77.0488 192.809 69.1502 191.173 61.3518C190.204 56.7095 190.271 51.8501 189.586 47.1244C189.019 43.2836 187.683 39.9772 182.773 39.9939C181.671 39.9939 180.586 38.9085 178.916 38.0234C177.613 39.4095 175.877 40.6786 174.925 42.3819C171.802 47.976 167.343 52.0505 162.167 55.7911C156.623 59.8155 151.847 64.8586 146.637 69.3506C144.098 71.5382 141.41 73.5587 138.671 75.4791C133.428 79.1529 128.084 82.6763 122.807 86.2833C115.36 91.3932 109.866 98.2564 105.841 106.188C98.9613 119.748 94.1687 133.909 94.9368 149.439C95.3877 158.79 97.0075 167.858 100.848 176.474C101.733 178.445 102.535 180.449 102.869 182.636C99.7795 177.81 96.5567 173.051 95.1039 167.49C91.2631 152.745 91.38 137.933 95.8219 123.405C97.9093 116.558 100.965 109.962 104.138 103.517C110.099 91.4433 120.336 83.4612 131.457 76.5311C138.12 72.3731 144.399 67.7976 150.828 61.5021C148.741 62.0699 147.488 62.1367 146.537 62.6877C136.45 68.5324 125.496 73.0578 116.445 80.5222C109.548 86.1998 102.936 92.345 96.924 98.9411C85.4185 111.599 82.563 127.146 83.615 143.678C84.2328 153.413 86.9548 162.547 91.8643 171.014C92.3151 171.782 92.5489 172.667 92.8662 173.485C92.5823 173.635 92.3151 173.802 92.0312 173.953C90.4616 171.448 88.6246 169.077 87.3555 166.438C83.2476 157.771 81.6111 148.52 81.394 138.968C80.9431 119.147 88.6748 103.099 103.036 89.6064C112.487 80.7226 122.69 73.2582 134.396 67.7809C136.25 66.9126 137.987 65.777 140.358 64.4411C121.772 66.612 101.232 74.9949 87.6394 97.338C71.3079 124.173 73.5957 150.875 91.0961 176.791C89.9773 175.856 88.8417 174.904 87.773 174.019C88.7582 176.474 90.9291 179.33 94.4192 182.402ZM94.0518 85.5319C90.6118 87.5858 88.0736 90.5749 85.9528 93.7978C74.9983 110.397 70.5397 128.448 74.5809 148.153C75.1987 151.192 75.5828 154.582 78.3381 156.803C77.9707 154.999 77.6535 153.179 77.1859 151.409C71.4582 129.951 76.2507 110.614 88.9753 92.8794C90.6953 90.4747 92.6157 88.2037 94.0518 85.5319ZM81.3773 163.015C80.4589 161.195 79.5571 159.358 78.6387 157.538C79.1397 159.508 79.6573 161.479 80.1583 163.449C80.5591 163.299 80.9599 163.148 81.3773 163.015ZM12.678 0.851645C10.4069 1.4862 8.10246 1.98717 5.78131 2.40464C2.32463 3.0225 1.6734 5.94482 -0.246979 9.43489C3.44348 8.16577 5.63103 4.85939 8.13586 7.765C10.4236 6.36229 12.2104 5.26016 13.9972 4.17473C14.2811 4.49201 14.565 4.82599 14.8489 5.14327C13.4796 6.71297 12.2271 8.39956 10.6908 9.78557C9.93935 10.4702 8.70363 10.9378 7.66829 10.9712C5.06326 11.0881 2.42485 10.9044 -0.814728 10.8209C-0.564255 12.7246 -0.246994 14.2275 -0.213593 15.7304C-0.0633087 20.4896 0.537888 25.349 -0.0799713 30.0247C-0.998413 37.0549 -5.9747 41.9477 -10.8842 46.5733C-16.9793 52.3344 -22.2896 58.6633 -26.2973 66.0609C-35.6821 83.3944 -39.4059 101.88 -36.1329 121.284C-33.4945 136.914 -24.9781 149.372 -12.1366 158.773C2.29126 169.344 18.4725 175.706 36.2402 176.775C51.002 177.66 65.6135 175.723 79.7408 168.743C72.6939 155.15 67.6508 141.123 69.8384 125.559C71.9758 110.463 77.8372 97.004 87.7563 85.0476C86.5373 81.09 83.8988 77.9005 80.8262 75.1284C72.8442 67.9312 64.2276 61.619 54.776 56.3755C44.5228 50.6979 34.9377 44.0184 27.5233 34.6837C26.6216 33.5648 25.7867 32.3959 24.9684 31.1936C24.7346 30.8429 24.7012 30.3419 24.2503 28.7388C26.2876 30.9097 27.5567 32.3291 28.9093 33.665C30.3955 35.1345 31.815 36.6708 33.4848 37.9065C41.0829 43.4673 48.4471 49.4622 56.496 54.3049C68.8198 61.7192 80.3253 69.9017 89.1423 81.4239C89.4262 81.7913 89.8604 82.0251 90.2612 82.3591C94.9536 78.7354 99.6126 75.1618 104.606 71.3044C103.654 67.1297 99.0448 65.777 97.1077 62.2202C100.798 64.3075 104.322 66.5452 106.643 70.6531C110.834 68.7996 114.859 67.0128 119.15 65.1091C115.644 57.294 110.484 51.1655 103.069 45.9888C105.975 45.7383 107.311 47.2412 108.496 48.4269C113.005 52.969 117.347 57.6614 121.688 62.3538C122.59 63.3223 123.242 64.4912 124.778 63.4893C118.315 44.5193 94.1687 24.9983 63.5262 23.0278C71.4916 26.234 79.5405 29.2398 86.4371 34.9007C85.4185 34.5835 84.3664 34.3497 83.3812 33.9322C77.787 31.561 72.2764 28.9392 66.5988 26.8185C63.9771 25.8499 61.0213 25.4659 58.1992 25.4158C49.3822 25.2655 41.1329 23.0278 33.2177 19.3207C29.7944 17.7176 27.1559 15.1793 25.269 11.8896C23.7661 9.2512 22.2965 6.57937 20.7602 3.95764C18.8733 0.801548 16.2348 -0.133591 12.678 0.851645Z" fill="#F2F2F2"/>
<path d="M151.329 198.584C151.162 198.183 151.012 197.782 150.862 197.382C154.352 197.014 156.439 194.71 158.944 192.906C163.954 189.299 169.832 186.895 175.343 184.006C175.376 183.989 175.426 183.972 175.459 183.939C175.409 183.972 175.376 184.022 175.326 184.073C174.14 185.175 173.072 186.46 171.719 187.312C168.529 189.333 165.19 191.136 161.917 193.023C171.819 190.485 181.922 188.531 190.021 181.701C192.576 179.547 195.031 177.243 197.769 175.339C209.325 167.34 214.602 155.551 217.574 142.492C221.966 123.188 217.441 105.437 207.738 88.6382C205.067 84.0126 202.846 79.1198 200.408 74.3606C201.41 74.394 201.911 74.7113 202.211 75.1788C203.363 76.9155 204.432 78.6856 205.551 80.439C206.837 82.4596 208.039 84.5469 209.442 86.4673C217.073 96.9041 221.799 108.41 222.584 121.418C223.185 131.571 221.916 141.373 218.96 151.209C215.153 163.9 207.538 173.135 196.667 180.098C193.043 182.419 189.353 184.674 185.612 186.811C183.007 188.297 180.336 189.767 177.53 190.819C171.118 193.224 164.605 195.361 158.126 197.599C157.592 197.665 157.057 197.749 156.523 197.816C154.786 198.066 153.049 198.333 151.329 198.584Z" fill="#F2F2F2"/>
<path d="M32.2323 21.1241C36.8412 22.8274 41.6505 24.0297 46.3596 25.4825C48.3969 26.1004 50.4007 26.8017 52.438 27.453C52.3545 27.787 52.2543 28.1043 52.1708 28.4382C47.3448 27.5532 42.5188 26.618 37.6761 25.7998C26.8719 23.9629 22.3298 16.1144 18.9901 7.06361C19.3073 6.87992 19.6246 6.69624 19.9252 6.49585C21.3112 8.8003 22.8308 11.0213 24.0332 13.4259C25.8533 17.0496 28.5419 19.7715 32.2323 21.1241Z" fill="#F2F2F2"/>
<path d="M109.047 120.783C116.829 105.621 128.986 93.848 140.241 81.3906C143.23 78.0675 146.436 74.878 149.876 72.0392C158.292 65.0924 166.375 57.8618 173.221 49.3119C173.722 48.6941 174.323 48.143 174.974 47.6921C177.346 46.0389 178.431 46.4898 179.283 49.4455C179.45 50.03 179.517 50.6478 179.6 51.0486C181.053 51.583 182.239 52.0506 183.441 52.4847C186.33 53.5201 187.515 55.4404 187.749 58.6132C188.768 72.0058 190.271 85.3649 191.223 98.7574C192.341 114.421 192.993 130.135 189.803 145.631C186.513 161.646 179.55 175.506 165.039 184.506C163.586 185.408 162.551 186.961 161.231 188.097C160.38 188.815 159.344 189.332 158.392 189.934C158.209 189.683 158.042 189.416 157.858 189.165C160.53 186.477 162.901 183.404 165.907 181.167C177.413 172.583 183.858 160.827 186.881 147.234C190.972 128.916 190.07 110.346 188.35 91.8107C187.415 81.6243 185.478 71.5215 186.029 61.2183C186.079 60.2664 186.063 59.2812 185.896 58.3461C185.528 56.4424 182.94 54.5888 180.535 54.2214C178.515 53.9041 177.63 55.1566 176.912 56.6762C175.409 59.849 173.939 63.0551 172.47 66.2279C171.802 67.6474 171.134 69.0835 170.466 70.5029C169.831 69.2338 169.798 68.2318 170.182 67.4136C171.969 63.506 173.772 59.5985 175.776 55.7911C176.945 53.5702 178.181 51.4828 176.26 48.3768C175.158 49.1282 174.54 50.2471 173.856 51.3158C169.531 57.962 163.836 63.3557 157.858 68.4322C142.278 81.641 128.635 96.6868 116.612 113.135C103.453 131.153 98.8775 151.159 104.121 173.118C104.522 174.771 104.756 176.458 105.056 178.144C102.434 175.606 101.933 172.299 101.366 169.127C98.2597 152.144 101.215 136.013 109.047 120.783Z" fill="#F2F2F2"/>
<path d="M140.692 99.9759C143.848 96.586 146.837 93.0125 150.143 89.7729C152.882 87.0844 154.485 87.0844 157.858 88.988C158.526 89.3721 159.127 89.8731 159.678 90.2572C168.145 85.1473 176.461 88.6207 178.231 98.0055C179.35 103.967 180.201 109.995 180.819 116.04C183.324 140.371 177.546 162.413 162.117 181.617C159.829 184.456 157.591 187.629 153.633 188.664C154.819 186.777 156.272 185.157 157.775 183.587C167.677 173.251 173.873 161.044 176.544 146.983C179.734 130.218 177.697 113.519 175.843 96.8198C175.609 94.6824 174.457 92.7453 172.236 92.1274C168.178 90.9919 163.92 88.9713 160.48 93.5301C160.28 93.7973 159.595 93.6804 159.211 93.7472C157.424 92.3445 155.721 91.0086 153.633 89.3721C151.262 91.7935 149.058 93.8474 147.071 96.0851C145.05 98.3561 143.33 100.894 141.276 103.132C133.895 111.214 127.767 120.215 122.373 129.667C119.217 135.194 116.044 140.938 114.224 146.983C111.218 157.036 110.817 167.456 113.406 177.81C113.69 178.979 113.74 180.198 113.89 181.4C113.589 181.483 113.289 181.567 112.988 181.65C112.32 179.78 111.419 177.943 111.051 176.006C108.43 162.597 109.765 149.639 115.443 137.114C121.722 123.254 130.389 111.064 140.692 99.9759Z" fill="#F2F2F2"/>
<path d="M145.284 134.543C147.154 133.391 148.724 131.688 150.193 130.035C151.128 128.983 151.546 127.496 152.347 126.311C154.034 123.789 157.14 122.62 159.879 123.472C162.567 124.29 162.784 126.628 162.951 128.882C163.085 130.636 163.068 132.389 163.068 134.142C163.085 138.134 162.784 142.141 163.135 146.099C163.753 153.062 162.667 159.792 161.014 166.488C160.73 167.657 160.146 168.776 159.545 170.312C159.261 169.494 159.027 169.177 159.077 168.91C159.261 167.641 159.428 166.371 159.762 165.152C161.949 156.87 162.333 148.42 162.05 139.937C161.933 136.113 161.415 132.289 160.814 128.515C160.363 125.593 158.443 124.808 155.988 126.394C155.22 126.878 154.502 127.68 154.134 128.498C152.381 132.489 149.275 135.178 145.768 137.499C142.879 139.403 140.758 141.891 139.306 145.013C134.83 154.665 133.01 164.735 134.212 175.339C134.513 178.011 134.613 180.699 134.814 183.388C129.186 171.498 130.873 158.79 135.799 146.249C137.703 141.34 140.708 137.365 145.284 134.543Z" fill="#F2F2F2"/>
</svg>
