<svg width="32" height="40" viewBox="0 0 32 40" fill="none" xmlns="http://www.w3.org/2000/svg">
<path d="M31.9803 34.6678L29.6785 8.72697C29.6371 8.21362 29.2065 7.82447 28.6849 7.82447H23.8329C23.8246 3.51066 20.314 0 16.0001 0C11.6863 0 8.17568 3.51066 8.1674 7.82447H3.3154C2.80205 7.82447 2.3715 8.21362 2.32182 8.72697L0.0200195 34.6678C0.0200195 34.7009 0.0200195 34.7257 0.0200195 34.7589C0.0200195 37.6485 2.67785 40 5.94012 40H26.0602C29.3224 40 31.9803 37.6485 31.9803 34.7589C31.9803 34.7257 31.9803 34.7009 31.9803 34.6678ZM16.0001 1.98717C19.221 1.98717 21.8375 4.6036 21.8457 7.82447H10.1546C10.1628 4.6036 12.7793 1.98717 16.0001 1.98717ZM26.0602 38.0046H5.94012C3.78736 38.0046 2.03203 36.5721 2.00719 34.792L4.22619 9.81163H8.1674V13.2975C8.1674 13.8439 8.61451 14.291 9.16098 14.291C9.70746 14.291 10.1546 13.8439 10.1546 13.2975V9.81163H21.8457V13.2975C21.8457 13.8439 22.2928 14.291 22.8393 14.291C23.3858 14.291 23.8329 13.8439 23.8329 13.2975V9.81163H27.7741L29.9931 34.8002C29.9683 36.5721 28.2129 38.0046 26.0602 38.0046Z" fill="#00B307"/>
<path d="M20.1317 20.6831L14.2696 26.5453L11.8767 24.1524C11.4875 23.7632 10.8583 23.7632 10.4691 24.1524C10.08 24.5415 10.08 25.1708 10.4691 25.56L13.5658 28.6566C13.7562 28.8471 14.0129 28.9464 14.2696 28.9464C14.5262 28.9464 14.7746 28.8471 14.9733 28.6566L21.5393 22.0907C21.9284 21.7015 21.9284 21.0723 21.5393 20.6831C21.1501 20.3022 20.5208 20.3022 20.1317 20.6831Z" fill="#00B307"/>
</svg>
